<svg width="29" height="29" viewBox="0 0 29 29" fill="none" xmlns="http://www.w3.org/2000/svg">
<circle cx="14.4508" cy="14.8014" r="13.6249" stroke="#F53838" stroke-width="0.939651"/>
<path d="M18.5619 14.2139H11.5967L13.7285 11.6533C13.8282 11.5334 13.8762 11.3788 13.8618 11.2235C13.8475 11.0682 13.7721 10.9249 13.6522 10.8253C13.5322 10.7256 13.3776 10.6776 13.2223 10.6919C13.067 10.7063 12.9238 10.7817 12.8241 10.9016L9.8877 14.4253C9.86794 14.4533 9.85028 14.4828 9.83484 14.5134C9.83484 14.5428 9.83484 14.5604 9.79373 14.5897C9.76711 14.6571 9.75318 14.7288 9.75262 14.8012C9.75318 14.8736 9.76711 14.9452 9.79373 15.0126C9.79373 15.0419 9.79373 15.0596 9.83484 15.0889C9.85028 15.1196 9.86794 15.149 9.8877 15.177L12.8241 18.7007C12.8793 18.767 12.9485 18.8203 13.0266 18.8569C13.1048 18.8934 13.19 18.9123 13.2763 18.9121C13.4135 18.9124 13.5465 18.8646 13.6522 18.7771C13.7116 18.7278 13.7608 18.6672 13.7968 18.5989C13.8329 18.5306 13.8551 18.4558 13.8622 18.3789C13.8692 18.3019 13.8611 18.2244 13.8382 18.1506C13.8152 18.0769 13.778 18.0083 13.7285 17.949L11.5967 15.3884H18.5619C18.7176 15.3884 18.867 15.3266 18.9771 15.2164C19.0873 15.1063 19.1491 14.9569 19.1491 14.8012C19.1491 14.6454 19.0873 14.496 18.9771 14.3859C18.867 14.2758 18.7176 14.2139 18.5619 14.2139Z" fill="#F53838"/>
</svg>
