<svg width="17" height="18" viewBox="0 0 17 18" fill="none" xmlns="http://www.w3.org/2000/svg">
<path d="M15.1635 7.16059L15.1533 7.15036C15.1524 7.14979 15.1518 7.14902 15.1514 7.14814L8.75192 0.748535L2.35254 7.14797C2.3518 7.14872 2.35065 7.1502 2.35065 7.1502L2.34008 7.16043C1.36153 8.14447 0.739981 9.42739 0.574241 10.8053C0.408502 12.1831 0.708085 13.5768 1.42536 14.7649C2.14265 15.953 3.23646 16.8672 4.53293 17.3622C5.8294 17.8571 7.25412 17.9045 8.58061 17.4968C8.69223 17.4626 8.81153 17.4626 8.92317 17.4968C10.2496 17.9044 11.6742 17.8569 12.9706 17.3619C14.267 16.8669 15.3607 15.9527 16.0779 14.7647C16.7951 13.5768 17.0948 12.1831 16.9291 10.8053C16.7634 9.42755 16.1419 8.14465 15.1635 7.16059ZM4.62808 11.3806C4.59692 11.4118 4.57222 11.4488 4.55537 11.4894C4.53851 11.5301 4.52984 11.5737 4.52984 11.6178C4.54123 12.7472 4.86043 13.8522 5.45309 14.8137C5.46655 14.8356 5.47277 14.8611 5.47087 14.8866C5.46896 14.9122 5.45902 14.9364 5.44246 14.956C5.42591 14.9756 5.40359 14.9894 5.3787 14.9955C5.35381 15.0016 5.32763 14.9997 5.30389 14.9901C4.85835 14.8027 4.45359 14.5302 4.11226 14.1881C3.41276 13.4884 3.01951 12.5397 3.01888 11.5504C3.01824 10.5611 3.41027 9.6119 4.10888 8.91142L8.75192 4.26881L13.3947 8.91142C14.0934 9.61182 14.4856 10.561 14.4849 11.5504C14.4844 12.5397 14.091 13.4884 13.3915 14.1881C13.0502 14.5302 12.6454 14.8027 12.2 14.9901C12.1762 14.9997 12.15 15.0016 12.1251 14.9955C12.1002 14.9894 12.0779 14.9755 12.0613 14.956C12.0448 14.9364 12.0348 14.9122 12.0329 14.8865C12.031 14.861 12.0372 14.8355 12.0507 14.8137C12.6434 13.8522 12.9628 12.7472 12.9744 11.6178C12.9744 11.5737 12.9656 11.5301 12.9487 11.4893C12.9317 11.4486 12.907 11.4117 12.8757 11.3805L10.6796 9.05117C10.6577 9.03291 10.6302 9.02291 10.6017 9.02291C10.5733 9.02291 10.5457 9.03291 10.5239 9.05117C10.502 9.06935 10.4873 9.09472 10.4822 9.12273C10.477 9.15074 10.4819 9.17958 10.496 9.20437C11.3489 10.7478 10.6154 12.9648 9.39235 14.1881L9.3859 14.1945C9.21709 14.3615 8.98919 14.4551 8.75175 14.455C8.51428 14.455 8.28644 14.3612 8.11775 14.1941L8.11181 14.1881C6.88827 12.9648 6.15522 10.7481 7.00827 9.2047C7.0223 9.17991 7.02719 9.15107 7.02208 9.12306C7.01698 9.09505 7.00222 9.06968 6.98036 9.0515C6.9585 9.03324 6.93095 9.02324 6.90248 9.02324C6.87401 9.02324 6.84645 9.03324 6.82459 9.0515L4.62808 11.3806Z" fill="#F53838"/>
</svg>
