<svg width="70" height="71" viewBox="0 0 70 71" fill="none" xmlns="http://www.w3.org/2000/svg">
<g filter="url(#filter0_d_643_2424)">
<circle cx="35.0369" cy="28.8014" r="14.0948" fill="#F53838"/>
<circle cx="35.0369" cy="28.8014" r="13.6249" stroke="#F53838" stroke-width="0.939651"/>
</g>
<path d="M30.9264 28.2139H37.8916L35.7598 25.6533C35.6601 25.5334 35.6121 25.3788 35.6264 25.2235C35.6407 25.0682 35.7162 24.9249 35.8361 24.8253C35.956 24.7256 36.1107 24.6776 36.2659 24.6919C36.4212 24.7063 36.5645 24.7817 36.6642 24.9016L39.6006 28.4253C39.6203 28.4533 39.638 28.4828 39.6534 28.5134C39.6534 28.5428 39.6534 28.5604 39.6945 28.5897C39.7212 28.6571 39.7351 28.7288 39.7357 28.8012C39.7351 28.8736 39.7212 28.9452 39.6945 29.0126C39.6945 29.0419 39.6945 29.0596 39.6534 29.0889C39.638 29.1196 39.6203 29.149 39.6006 29.177L36.6642 32.7007C36.609 32.767 36.5398 32.8203 36.4616 32.8569C36.3835 32.8934 36.2982 32.9123 36.212 32.9121C36.0747 32.9124 35.9418 32.8646 35.8361 32.7771C35.7766 32.7278 35.7275 32.6672 35.6914 32.5989C35.6554 32.5306 35.6332 32.4558 35.6261 32.3789C35.619 32.3019 35.6272 32.2244 35.6501 32.1506C35.673 32.0769 35.7103 32.0083 35.7598 31.949L37.8916 29.3884H30.9264C30.7707 29.3884 30.6213 29.3266 30.5112 29.2164C30.401 29.1063 30.3391 28.9569 30.3391 28.8012C30.3391 28.6454 30.401 28.496 30.5112 28.3859C30.6213 28.2758 30.7707 28.2139 30.9264 28.2139Z" fill="white"/>
<defs>
<filter id="filter0_d_643_2424" x="0.269808" y="0.611894" width="69.5342" height="69.5342" filterUnits="userSpaceOnUse" color-interpolation-filters="sRGB">
<feFlood flood-opacity="0" result="BackgroundImageFix"/>
<feColorMatrix in="SourceAlpha" type="matrix" values="0 0 0 0 0 0 0 0 0 0 0 0 0 0 0 0 0 0 127 0" result="hardAlpha"/>
<feOffset dy="6.57756"/>
<feGaussianBlur stdDeviation="10.3362"/>
<feColorMatrix type="matrix" values="0 0 0 0 0.0561111 0 0 0 0 0.0777333 0 0 0 0 0.133333 0 0 0 0.08 0"/>
<feBlend mode="normal" in2="BackgroundImageFix" result="effect1_dropShadow_643_2424"/>
<feBlend mode="normal" in="SourceGraphic" in2="effect1_dropShadow_643_2424" result="shape"/>
</filter>
</defs>
</svg>
