<?xml version="1.0" encoding="UTF-8"?>
<!DOCTYPE svg PUBLIC "-//W3C//DTD SVG 1.1//EN" "http://www.w3.org/Graphics/SVG/1.1/DTD/svg11.dtd">
<!-- Creator: CorelDRAW 2017 -->
<svg xmlns="http://www.w3.org/2000/svg" xml:space="preserve" width="8.26772in" height="11.6929in" version="1.1" style="shape-rendering:geometricPrecision; text-rendering:geometricPrecision; image-rendering:optimizeQuality; fill-rule:evenodd; clip-rule:evenodd"
viewBox="0 0 8268 11693"
 xmlns:xlink="http://www.w3.org/1999/xlink">
 <defs>
  <style type="text/css">
   <![CDATA[
    .str0 {stroke:#F53838;stroke-width:9.7874}
    .fil1 {fill:none}
    .fil0 {fill:#F53838}
    .fil2 {fill:white}
   ]]>
  </style>
 </defs>
 <g id="Layer_x0020_1">
  <metadata id="CorelCorpID_0Corel-Layer"/>
  <g id="_2492110928064" filter="url(#filter0_d_643_2424)">
   <circle class="fil0" cx="4134" cy="5846" r="147"/>
   <circle class="fil1 str0" cx="4134" cy="5846" r="142"/>
  </g>
  <path class="fil2" d="M4091 5840l73 0 -22 -27c-1,-1 -2,-3 -1,-4 0,-2 1,-3 2,-4 1,-1 3,-2 4,-1 2,0 3,1 4,2l31 37c0,0 0,1 1,1 0,0 0,0 0,1 0,1 0,1 0,2 0,1 0,2 0,2 0,0 0,0 0,1 0,0 0,1 -1,1l-31 37c-1,1 -1,1 -2,2 -1,0 -2,1 -3,1 -1,0 -3,0 -4,-1 -1,-1 -1,-1 -2,-2 0,-1 -1,-1 -1,-2 0,-1 0,-2 0,-2 0,-1 1,-1 1,-2l22 -27 -73 0c-2,0 -3,-1 -4,-2 -1,-1 -2,-3 -2,-4 0,-2 1,-3 2,-4 1,-1 3,-2 4,-2z"/>
 </g>
</svg>
