<svg width="64" height="8" viewBox="0 0 64 8" fill="none" xmlns="http://www.w3.org/2000/svg">
<circle cx="32.2438" cy="3.80152" r="3.52369" fill="#DDE0E4"/>
<circle cx="46.3386" cy="3.80152" r="3.52369" fill="#DDE0E4"/>
<circle cx="60.433" cy="3.80152" r="3.52369" fill="#DDE0E4"/>
<path fill-rule="evenodd" clip-rule="evenodd" d="M21.6726 3.80152C21.6726 5.74761 20.095 7.32522 18.1489 7.32522C18.0834 7.32522 18.0183 7.32343 17.9536 7.3199V7.32512H4.0869C4.07593 7.32522 4.06495 7.32527 4.05397 7.32527C4.04298 7.32527 4.032 7.32522 4.02104 7.32512H3.79438V7.31585C1.96951 7.18297 0.530273 5.66035 0.530273 3.80157C0.530273 1.9428 1.96951 0.420177 3.79438 0.287299V0.277832H17.9536V0.283154C18.0183 0.279621 18.0834 0.277832 18.1489 0.277832C20.095 0.277832 21.6726 1.85544 21.6726 3.80152Z" fill="#F53838"/>
</svg>
