<svg width="9" height="8" viewBox="0 0 9 8" fill="none" xmlns="http://www.w3.org/2000/svg">
<g clip-path="url(#clip0_643_2429)">
<path d="M7.51484 2.96548L5.65095 2.6946L4.81774 1.00543C4.79499 0.95918 4.75755 0.921741 4.7113 0.898984C4.59531 0.841724 4.45436 0.889441 4.39637 1.00543L3.56316 2.6946L1.69928 2.96548C1.64789 2.97282 1.60091 2.99705 1.56494 3.03375C1.52145 3.07845 1.49749 3.13858 1.49831 3.20094C1.49914 3.2633 1.52469 3.32277 1.56934 3.3663L2.91789 4.68108L2.59929 6.53763C2.59182 6.58081 2.59659 6.62523 2.61308 6.66584C2.62957 6.70645 2.65711 6.74163 2.69257 6.76738C2.72803 6.79314 2.77 6.80844 2.81372 6.81156C2.85744 6.81468 2.90115 6.80548 2.93991 6.78502L4.60706 5.9085L6.2742 6.78502C6.31972 6.80924 6.37257 6.81732 6.42323 6.80851C6.55096 6.78649 6.63685 6.66536 6.61483 6.53763L6.29623 4.68108L7.64477 3.3663C7.68148 3.33033 7.7057 3.28335 7.71305 3.23196C7.73287 3.10349 7.64331 2.98457 7.51484 2.96548Z" fill="#FEA250"/>
</g>
<defs>
<clipPath id="clip0_643_2429">
<rect width="7.51721" height="7.51721" fill="white" transform="translate(0.84845 0.373535)"/>
</clipPath>
</defs>
</svg>
